<svg width="42" height="37" viewBox="0 0 42 37" fill="none" xmlns="http://www.w3.org/2000/svg">
<path d="M27.2561 34.688C25.5741 35.6299 23.7507 36.3101 21.8567 36.6758C17.2346 37.5686 12.2802 36.5968 8.33661 33.9993C3.96187 31.1229 0.901672 26.3171 0.173726 21.0901C-0.490613 16.3184 0.767404 11.312 3.65092 7.43533C6.96554 2.9774 12.2803 0.131615 17.9625 0.00497735C18.118 0.00142011 18.2805 1.04216e-06 18.436 1.04216e-06C23.0793 0.0220559 27.659 1.87324 31.016 5.07403C33.7935 7.72204 35.73 11.2615 36.4368 15.0592C37.0446 18.292 36.7548 21.6842 35.6522 24.7875L33.32 23.1882H30.5778C31.6097 20.4356 31.7511 17.333 30.8323 14.4758C29.2563 9.53409 24.6271 5.72572 19.2629 5.36573C18.9519 5.3451 18.648 5.33514 18.337 5.33585C13.3333 5.36004 8.48506 8.39863 6.38603 13.235C4.5485 17.4646 5.04322 22.5863 7.94086 26.4373C9.85614 28.9822 12.7043 30.7985 15.8211 31.4196C19.8636 32.2271 24.2313 30.9394 27.2561 28.1569V34.688Z" fill="#0D76EA"/>
<path fill-rule="evenodd" clip-rule="evenodd" d="M36.0722 8.83474L23.1769 -1.38954e-06H4.14107e-06L7.17416 9.18335L0.0883471 17.5642H23.2031L36.0722 8.83474Z" transform="translate(17.6127 25.1254) scale(0.67607)" fill="#0D76EA"/>
</svg>
