<svg width="15" height="14" viewBox="0 0 15 14" fill="none" xmlns="http://www.w3.org/2000/svg">
<path fill-rule="evenodd" clip-rule="evenodd" d="M2 3H6.02242C6.00758 3.16468 6 3.33146 6 3.5C6 4.02001 6.07217 4.52317 6.20703 5H2V12H9V8.40029C9.60964 8.71193 10.2851 8.91316 11 8.97758V12C11 13.1046 10.1046 14 9 14H2C0.895431 14 0 13.1046 0 12V5C0 3.89543 0.895431 3 2 3Z" fill="white"/>
<path d="M15 3.5C15 5.433 13.433 7 11.5 7C9.567 7 8 5.433 8 3.5C8 1.567 9.567 0 11.5 0C13.433 0 15 1.567 15 3.5Z" fill="#F2994A"/>
</svg>
